<?xml version="1.0" standalone="no"?><svg xmlns="http://www.w3.org/2000/svg" viewBox="0 0 1440 320"><path fill="#011627" fill-opacity="1" d="M0,128L30,144C60,160,120,192,180,192C240,192,300,160,360,138.7C420,117,480,107,540,128C600,149,660,203,720,202.7C780,203,840,149,900,122.7C960,96,1020,96,1080,101.3C1140,107,1200,117,1260,101.3C1320,85,1380,43,1410,21.3L1440,0L1440,0L1410,0C1380,0,1320,0,1260,0C1200,0,1140,0,1080,0C1020,0,960,0,900,0C840,0,780,0,720,0C660,0,600,0,540,0C480,0,420,0,360,0C300,0,240,0,180,0C120,0,60,0,30,0L0,0Z"></path></svg>